# Blender v3.1.2 OBJ File: 'tree.blend'
# www.blender.org
o Cone
v 0.000000 3.276495 -1.000000
v 0.195090 3.276495 -0.980785
v 0.382683 3.276495 -0.923880
v 0.555570 3.276495 -0.831470
v 0.707107 3.276495 -0.707107
v 0.831470 3.276495 -0.555570
v 0.923880 3.276495 -0.382683
v 0.980785 3.276495 -0.195090
v 1.000000 3.276495 0.000000
v 0.980785 3.276495 0.195090
v 0.923880 3.276495 0.382683
v 0.831470 3.276495 0.555570
v 0.707107 3.276495 0.707107
v 0.555570 3.276495 0.831470
v 0.382683 3.276495 0.923880
v 0.195090 3.276495 0.980785
v -0.000000 3.276495 1.000000
v -0.195090 3.276495 0.980785
v -0.382683 3.276495 0.923880
v -0.555570 3.276495 0.831470
v -0.707107 3.276495 0.707107
v -0.831469 3.276495 0.555570
v -0.923880 3.276495 0.382684
v -0.980785 3.276495 0.195090
v -1.000000 3.276495 -0.000000
v -0.980785 3.276495 -0.195090
v -0.923879 3.276495 -0.382684
v -0.831470 3.276495 -0.555570
v -0.707107 3.276495 -0.707107
v -0.555570 3.276495 -0.831470
v -0.382683 3.276495 -0.923880
v -0.195090 3.276495 -0.980785
v 0.000000 6.638433 0.000000
v -0.025344 4.136989 -1.010419
v 0.169746 4.136989 -0.991205
v 0.357339 4.136989 -0.934299
v 0.530226 4.136989 -0.841889
v 0.681762 4.136989 -0.717526
v 0.806125 4.136989 -0.565990
v 0.898535 4.136989 -0.393103
v 0.955441 4.136989 -0.205510
v 0.974656 4.136989 -0.010419
v 0.955441 4.136989 0.184671
v 0.898535 4.136989 0.372264
v 0.806125 4.136989 0.545151
v 0.681762 4.136989 0.696687
v 0.530226 4.136989 0.821050
v 0.357339 4.136989 0.913460
v 0.169746 4.136989 0.970366
v -0.025344 4.136989 0.989581
v -0.220435 4.136989 0.970366
v -0.408028 4.136989 0.913460
v -0.580915 4.136989 0.821050
v -0.732451 4.136989 0.696688
v -0.856814 4.136989 0.545151
v -0.949224 4.136989 0.372264
v -1.006130 4.136989 0.184671
v -1.025344 4.136989 -0.010419
v -1.006130 4.136989 -0.205510
v -0.949224 4.136989 -0.393103
v -0.856814 4.136989 -0.565989
v -0.732451 4.136989 -0.717526
v -0.580915 4.136989 -0.841889
v -0.408028 4.136989 -0.934299
v -0.220435 4.136989 -0.991205
v -0.025344 7.498927 -0.010419
vt 0.250000 0.490000
vt 0.250000 0.250000
vt 0.296822 0.485388
vt 0.341844 0.471731
vt 0.383337 0.449553
vt 0.419706 0.419706
vt 0.449553 0.383337
vt 0.471731 0.341844
vt 0.485388 0.296822
vt 0.490000 0.250000
vt 0.485388 0.203178
vt 0.471731 0.158156
vt 0.449553 0.116663
vt 0.419706 0.080294
vt 0.383337 0.050447
vt 0.341844 0.028269
vt 0.296822 0.014612
vt 0.250000 0.010000
vt 0.203178 0.014612
vt 0.158156 0.028269
vt 0.116663 0.050447
vt 0.080294 0.080294
vt 0.050447 0.116663
vt 0.028269 0.158156
vt 0.014612 0.203178
vt 0.010000 0.250000
vt 0.014612 0.296822
vt 0.028269 0.341844
vt 0.050447 0.383337
vt 0.080294 0.419706
vt 0.116663 0.449553
vt 0.158156 0.471731
vt 0.985388 0.296822
vt 0.796822 0.014612
vt 0.514612 0.203178
vt 0.203178 0.485388
vt 0.250000 0.490000
vt 0.250000 0.250000
vt 0.296822 0.485388
vt 0.341844 0.471731
vt 0.383337 0.449553
vt 0.419706 0.419706
vt 0.449553 0.383337
vt 0.471731 0.341844
vt 0.485388 0.296822
vt 0.490000 0.250000
vt 0.485388 0.203178
vt 0.471731 0.158156
vt 0.449553 0.116663
vt 0.419706 0.080294
vt 0.383337 0.050447
vt 0.341844 0.028269
vt 0.296822 0.014612
vt 0.250000 0.010000
vt 0.203178 0.014612
vt 0.158156 0.028269
vt 0.116663 0.050447
vt 0.080294 0.080294
vt 0.050447 0.116663
vt 0.028269 0.158156
vt 0.014612 0.203178
vt 0.010000 0.250000
vt 0.014612 0.296822
vt 0.028269 0.341844
vt 0.050447 0.383337
vt 0.080294 0.419706
vt 0.116663 0.449553
vt 0.158156 0.471731
vt 0.985388 0.296822
vt 0.796822 0.014612
vt 0.514612 0.203178
vt 0.203178 0.485388
vt 0.703178 0.485388
vt 0.750000 0.490000
vt 0.796822 0.485388
vt 0.841844 0.471731
vt 0.883337 0.449553
vt 0.919706 0.419706
vt 0.949553 0.383337
vt 0.971731 0.341844
vt 0.990000 0.250000
vt 0.985388 0.203178
vt 0.971731 0.158156
vt 0.949553 0.116663
vt 0.919706 0.080294
vt 0.883337 0.050447
vt 0.841844 0.028269
vt 0.750000 0.010000
vt 0.703178 0.014612
vt 0.658156 0.028269
vt 0.616663 0.050447
vt 0.580294 0.080294
vt 0.550447 0.116663
vt 0.528269 0.158156
vt 0.510000 0.250000
vt 0.514612 0.296822
vt 0.528269 0.341844
vt 0.550447 0.383337
vt 0.580294 0.419706
vt 0.616663 0.449553
vt 0.658156 0.471731
vt 0.703178 0.485388
vt 0.750000 0.490000
vt 0.796822 0.485388
vt 0.841844 0.471731
vt 0.883337 0.449553
vt 0.919706 0.419706
vt 0.949553 0.383337
vt 0.971731 0.341844
vt 0.990000 0.250000
vt 0.985388 0.203178
vt 0.971731 0.158156
vt 0.949553 0.116663
vt 0.919706 0.080294
vt 0.883337 0.050447
vt 0.841844 0.028269
vt 0.750000 0.010000
vt 0.703178 0.014612
vt 0.658156 0.028269
vt 0.616663 0.050447
vt 0.580294 0.080294
vt 0.550447 0.116663
vt 0.528269 0.158156
vt 0.510000 0.250000
vt 0.514612 0.296822
vt 0.528269 0.341844
vt 0.550447 0.383337
vt 0.580294 0.419706
vt 0.616663 0.449553
vt 0.658156 0.471731
vn 0.0940 0.2838 -0.9543
vn 0.2783 0.2838 -0.9176
vn 0.4520 0.2838 -0.8456
vn 0.6083 0.2838 -0.7412
vn 0.7412 0.2838 -0.6083
vn 0.8456 0.2838 -0.4520
vn 0.9176 0.2838 -0.2783
vn 0.9543 0.2838 -0.0940
vn 0.9543 0.2838 0.0940
vn 0.9176 0.2838 0.2783
vn 0.8456 0.2838 0.4520
vn 0.7412 0.2838 0.6083
vn 0.6083 0.2838 0.7412
vn 0.4520 0.2838 0.8456
vn 0.2783 0.2838 0.9176
vn 0.0940 0.2838 0.9543
vn -0.0940 0.2838 0.9543
vn -0.2783 0.2838 0.9176
vn -0.4520 0.2838 0.8456
vn -0.6083 0.2838 0.7412
vn -0.7412 0.2838 0.6083
vn -0.8456 0.2838 0.4520
vn -0.9176 0.2838 0.2783
vn -0.9543 0.2838 0.0940
vn -0.9543 0.2838 -0.0940
vn -0.9176 0.2838 -0.2783
vn -0.8456 0.2838 -0.4520
vn -0.7412 0.2838 -0.6083
vn -0.6083 0.2838 -0.7412
vn -0.4520 0.2838 -0.8456
vn 0.0000 -1.0000 0.0000
vn -0.2783 0.2838 -0.9176
vn -0.0940 0.2838 -0.9543
s off
f 1/1/1 33/2/1 2/3/1
f 2/3/2 33/2/2 3/4/2
f 3/4/3 33/2/3 4/5/3
f 4/5/4 33/2/4 5/6/4
f 5/6/5 33/2/5 6/7/5
f 6/7/6 33/2/6 7/8/6
f 7/8/7 33/2/7 8/9/7
f 8/9/8 33/2/8 9/10/8
f 9/10/9 33/2/9 10/11/9
f 10/11/10 33/2/10 11/12/10
f 11/12/11 33/2/11 12/13/11
f 12/13/12 33/2/12 13/14/12
f 13/14/13 33/2/13 14/15/13
f 14/15/14 33/2/14 15/16/14
f 15/16/15 33/2/15 16/17/15
f 16/17/16 33/2/16 17/18/16
f 17/18/17 33/2/17 18/19/17
f 18/19/18 33/2/18 19/20/18
f 19/20/19 33/2/19 20/21/19
f 20/21/20 33/2/20 21/22/20
f 21/22/21 33/2/21 22/23/21
f 22/23/22 33/2/22 23/24/22
f 23/24/23 33/2/23 24/25/23
f 24/25/24 33/2/24 25/26/24
f 25/26/25 33/2/25 26/27/25
f 26/27/26 33/2/26 27/28/26
f 27/28/27 33/2/27 28/29/27
f 28/29/28 33/2/28 29/30/28
f 29/30/29 33/2/29 30/31/29
f 30/31/30 33/2/30 31/32/30
f 8/33/31 16/34/31 24/35/31
f 31/32/32 33/2/32 32/36/32
f 32/36/33 33/2/33 1/1/33
f 34/37/1 66/38/1 35/39/1
f 35/39/2 66/38/2 36/40/2
f 36/40/3 66/38/3 37/41/3
f 37/41/4 66/38/4 38/42/4
f 38/42/5 66/38/5 39/43/5
f 39/43/6 66/38/6 40/44/6
f 40/44/7 66/38/7 41/45/7
f 41/45/8 66/38/8 42/46/8
f 42/46/9 66/38/9 43/47/9
f 43/47/10 66/38/10 44/48/10
f 44/48/11 66/38/11 45/49/11
f 45/49/12 66/38/12 46/50/12
f 46/50/13 66/38/13 47/51/13
f 47/51/14 66/38/14 48/52/14
f 48/52/15 66/38/15 49/53/15
f 49/53/16 66/38/16 50/54/16
f 50/54/17 66/38/17 51/55/17
f 51/55/18 66/38/18 52/56/18
f 52/56/19 66/38/19 53/57/19
f 53/57/20 66/38/20 54/58/20
f 54/58/21 66/38/21 55/59/21
f 55/59/22 66/38/22 56/60/22
f 56/60/23 66/38/23 57/61/23
f 57/61/24 66/38/24 58/62/24
f 58/62/25 66/38/25 59/63/25
f 59/63/26 66/38/26 60/64/26
f 60/64/27 66/38/27 61/65/27
f 61/65/28 66/38/28 62/66/28
f 62/66/29 66/38/29 63/67/29
f 63/67/30 66/38/30 64/68/30
f 41/69/31 49/70/31 57/71/31
f 64/68/32 66/38/32 65/72/32
f 65/72/33 66/38/33 34/37/33
f 32/73/31 1/74/31 2/75/31
f 2/75/31 3/76/31 4/77/31
f 4/77/31 5/78/31 6/79/31
f 6/79/31 7/80/31 8/33/31
f 8/33/31 9/81/31 10/82/31
f 10/82/31 11/83/31 12/84/31
f 12/84/31 13/85/31 14/86/31
f 14/86/31 15/87/31 16/34/31
f 16/34/31 17/88/31 18/89/31
f 18/89/31 19/90/31 20/91/31
f 20/91/31 21/92/31 22/93/31
f 22/93/31 23/94/31 24/35/31
f 24/35/31 25/95/31 26/96/31
f 26/96/31 27/97/31 24/35/31
f 27/97/31 28/98/31 24/35/31
f 28/98/31 29/99/31 30/100/31
f 30/100/31 31/101/31 28/98/31
f 31/101/31 32/73/31 28/98/31
f 32/73/31 2/75/31 8/33/31
f 2/75/31 4/77/31 8/33/31
f 4/77/31 6/79/31 8/33/31
f 8/33/31 10/82/31 12/84/31
f 12/84/31 14/86/31 8/33/31
f 14/86/31 16/34/31 8/33/31
f 16/34/31 18/89/31 24/35/31
f 18/89/31 20/91/31 24/35/31
f 20/91/31 22/93/31 24/35/31
f 24/35/31 28/98/31 32/73/31
f 32/73/31 8/33/31 24/35/31
f 65/102/31 34/103/31 35/104/31
f 35/104/31 36/105/31 37/106/31
f 37/106/31 38/107/31 41/69/31
f 38/107/31 39/108/31 41/69/31
f 39/108/31 40/109/31 41/69/31
f 41/69/31 42/110/31 43/111/31
f 43/111/31 44/112/31 45/113/31
f 45/113/31 46/114/31 47/115/31
f 47/115/31 48/116/31 45/113/31
f 48/116/31 49/70/31 45/113/31
f 49/70/31 50/117/31 51/118/31
f 51/118/31 52/119/31 49/70/31
f 52/119/31 53/120/31 49/70/31
f 53/120/31 54/121/31 55/122/31
f 55/122/31 56/123/31 57/71/31
f 57/71/31 58/124/31 59/125/31
f 59/125/31 60/126/31 57/71/31
f 60/126/31 61/127/31 57/71/31
f 61/127/31 62/128/31 63/129/31
f 63/129/31 64/130/31 65/102/31
f 65/102/31 35/104/31 41/69/31
f 35/104/31 37/106/31 41/69/31
f 41/69/31 43/111/31 49/70/31
f 43/111/31 45/113/31 49/70/31
f 53/120/31 55/122/31 49/70/31
f 55/122/31 57/71/31 49/70/31
f 61/127/31 63/129/31 65/102/31
f 57/71/31 61/127/31 65/102/31
f 65/102/31 41/69/31 57/71/31
